<mxfile host="app.diagrams.net" modified="2022-09-21T04:05:58.981Z" agent="5.0 (Windows NT 10.0; Win64; x64) AppleWebKit/537.36 (KHTML, like Gecko) Chrome/105.0.0.0 Safari/537.36" etag="3ejp04wE0REnvfBZhrGB" version="20.3.1" type="github">
  <diagram id="C-yN11XaQHERJCoyUqDr" name="หน้า-1">
    <mxGraphModel dx="2138" dy="547" grid="1" gridSize="10" guides="1" tooltips="1" connect="1" arrows="1" fold="1" page="1" pageScale="1" pageWidth="1100" pageHeight="850" math="0" shadow="0">
      <root>
        <mxCell id="0" />
        <mxCell id="1" parent="0" />
        <mxCell id="EYg5Czc74dAmpDCZTBrX-3" style="rounded=0;orthogonalLoop=1;jettySize=auto;html=1;" edge="1" parent="1" source="EYg5Czc74dAmpDCZTBrX-1" target="EYg5Czc74dAmpDCZTBrX-2">
          <mxGeometry relative="1" as="geometry" />
        </mxCell>
        <mxCell id="EYg5Czc74dAmpDCZTBrX-5" style="edgeStyle=none;rounded=0;orthogonalLoop=1;jettySize=auto;html=1;" edge="1" parent="1" source="EYg5Czc74dAmpDCZTBrX-1" target="EYg5Czc74dAmpDCZTBrX-4">
          <mxGeometry relative="1" as="geometry" />
        </mxCell>
        <mxCell id="EYg5Czc74dAmpDCZTBrX-7" style="edgeStyle=none;rounded=0;orthogonalLoop=1;jettySize=auto;html=1;" edge="1" parent="1" source="EYg5Czc74dAmpDCZTBrX-1" target="EYg5Czc74dAmpDCZTBrX-6">
          <mxGeometry relative="1" as="geometry" />
        </mxCell>
        <mxCell id="EYg5Czc74dAmpDCZTBrX-15" style="edgeStyle=none;rounded=0;orthogonalLoop=1;jettySize=auto;html=1;" edge="1" parent="1" source="EYg5Czc74dAmpDCZTBrX-1" target="EYg5Czc74dAmpDCZTBrX-14">
          <mxGeometry relative="1" as="geometry" />
        </mxCell>
        <mxCell id="EYg5Czc74dAmpDCZTBrX-1" value="Math" style="ellipse;whiteSpace=wrap;html=1;" vertex="1" parent="1">
          <mxGeometry x="280" y="310" width="120" height="80" as="geometry" />
        </mxCell>
        <mxCell id="EYg5Czc74dAmpDCZTBrX-2" value="Algebra" style="ellipse;whiteSpace=wrap;html=1;" vertex="1" parent="1">
          <mxGeometry x="110" y="170" width="120" height="80" as="geometry" />
        </mxCell>
        <mxCell id="EYg5Czc74dAmpDCZTBrX-9" style="edgeStyle=none;rounded=0;orthogonalLoop=1;jettySize=auto;html=1;" edge="1" parent="1" source="EYg5Czc74dAmpDCZTBrX-4" target="EYg5Czc74dAmpDCZTBrX-8">
          <mxGeometry relative="1" as="geometry" />
        </mxCell>
        <mxCell id="EYg5Czc74dAmpDCZTBrX-11" style="edgeStyle=none;rounded=0;orthogonalLoop=1;jettySize=auto;html=1;" edge="1" parent="1" source="EYg5Czc74dAmpDCZTBrX-4" target="EYg5Czc74dAmpDCZTBrX-10">
          <mxGeometry relative="1" as="geometry" />
        </mxCell>
        <mxCell id="EYg5Czc74dAmpDCZTBrX-4" value="Number Theory" style="ellipse;whiteSpace=wrap;html=1;" vertex="1" parent="1">
          <mxGeometry x="340" y="160" width="120" height="80" as="geometry" />
        </mxCell>
        <mxCell id="EYg5Czc74dAmpDCZTBrX-13" style="edgeStyle=none;rounded=0;orthogonalLoop=1;jettySize=auto;html=1;" edge="1" parent="1" source="EYg5Czc74dAmpDCZTBrX-6" target="EYg5Czc74dAmpDCZTBrX-12">
          <mxGeometry relative="1" as="geometry" />
        </mxCell>
        <mxCell id="EYg5Czc74dAmpDCZTBrX-6" value="Geometry" style="ellipse;whiteSpace=wrap;html=1;" vertex="1" parent="1">
          <mxGeometry x="490" y="310" width="120" height="80" as="geometry" />
        </mxCell>
        <mxCell id="EYg5Czc74dAmpDCZTBrX-8" value="Algebra Number Theory" style="ellipse;whiteSpace=wrap;html=1;" vertex="1" parent="1">
          <mxGeometry x="310" y="40" width="120" height="80" as="geometry" />
        </mxCell>
        <mxCell id="EYg5Czc74dAmpDCZTBrX-10" value="Analytic Number Theory" style="ellipse;whiteSpace=wrap;html=1;" vertex="1" parent="1">
          <mxGeometry x="520" y="110" width="120" height="80" as="geometry" />
        </mxCell>
        <mxCell id="EYg5Czc74dAmpDCZTBrX-12" value="Topology" style="ellipse;whiteSpace=wrap;html=1;" vertex="1" parent="1">
          <mxGeometry x="680" y="260" width="120" height="80" as="geometry" />
        </mxCell>
        <mxCell id="EYg5Czc74dAmpDCZTBrX-17" style="edgeStyle=none;rounded=0;orthogonalLoop=1;jettySize=auto;html=1;" edge="1" parent="1" source="EYg5Czc74dAmpDCZTBrX-14" target="EYg5Czc74dAmpDCZTBrX-18">
          <mxGeometry relative="1" as="geometry">
            <mxPoint x="95.85748901047327" y="504.20516243160887" as="targetPoint" />
          </mxGeometry>
        </mxCell>
        <mxCell id="EYg5Czc74dAmpDCZTBrX-22" style="edgeStyle=none;rounded=0;orthogonalLoop=1;jettySize=auto;html=1;" edge="1" parent="1" source="EYg5Czc74dAmpDCZTBrX-14" target="EYg5Czc74dAmpDCZTBrX-21">
          <mxGeometry relative="1" as="geometry" />
        </mxCell>
        <mxCell id="EYg5Czc74dAmpDCZTBrX-14" value="Analysis" style="ellipse;whiteSpace=wrap;html=1;" vertex="1" parent="1">
          <mxGeometry x="150" y="400" width="120" height="80" as="geometry" />
        </mxCell>
        <mxCell id="EYg5Czc74dAmpDCZTBrX-18" value="Partial Diferencetial Equation" style="ellipse;whiteSpace=wrap;html=1;" vertex="1" parent="1">
          <mxGeometry x="-60" y="480" width="120" height="80" as="geometry" />
        </mxCell>
        <mxCell id="EYg5Czc74dAmpDCZTBrX-21" value="Dynamics" style="ellipse;whiteSpace=wrap;html=1;" vertex="1" parent="1">
          <mxGeometry x="120" y="560" width="120" height="80" as="geometry" />
        </mxCell>
      </root>
    </mxGraphModel>
  </diagram>
</mxfile>
